<?xml version="1.0" encoding="utf-8"?>
<!-- Generator: Adobe Illustrator 15.0.0, SVG Export Plug-In  -->
<!DOCTYPE svg PUBLIC "-//W3C//DTD SVG 1.1//EN" "http://www.w3.org/Graphics/SVG/1.1/DTD/svg11.dtd" [
	<!ENTITY ns_flows "http://ns.adobe.com/Flows/1.0/">
]>
<svg version="1.1"
	 xmlns="http://www.w3.org/2000/svg" xmlns:xlink="http://www.w3.org/1999/xlink" xmlns:a="http://ns.adobe.com/AdobeSVGViewerExtensions/3.0/"
	 x="0px" y="0px" width="284px" height="301px" viewBox="-0.3232422 -0.3242188 284 301"
	 enable-background="new -0.3232422 -0.3242188 284 301" xml:space="preserve">
<defs>
</defs>
<circle stroke="#FFFFFF" stroke-miterlimit="10" cx="141.6767578" cy="141.6757813" r="141.1767578"/>
<circle fill="none" stroke="#FFFFFF" stroke-width="1.5" stroke-miterlimit="10" cx="141.6767578" cy="141.6757813" r="133.1699219"/>
<line fill="none" stroke="#FFFFFF" stroke-width="1.5" stroke-miterlimit="10" x1="31.8730469" y1="141.6757813" x2="251.4804688" y2="141.6757813"/>
<g>
	<path fill="#FFFFFF" d="M122.4213867,119.9916992V66.1733398h-6.0693359c-1.0742188,0-1.8447266-0.2055664-2.3095703-0.6176758
		c-0.4658203-0.4111328-0.6982422-0.9575195-0.6982422-1.6381836c0-0.6796875,0.2324219-1.2260742,0.6982422-1.6381836
		c0.4648438-0.4111328,1.2353516-0.6176758,2.3095703-0.6176758h28.3598633c5.6210938,0,10.1953125,1.6206055,13.7226563,4.8608398
		c3.5263672,3.2412109,5.2910156,7.0454102,5.2910156,11.4135742c0,5.5146484-2.9550781,9.9726563-8.8632813,13.3740234
		c4.6914063,1.6835938,8.1289063,3.9208984,10.3125,6.7138672s3.2773438,5.8730469,3.2773438,9.2382813
		c0,3.0078125-0.7167969,5.7563477-2.1484375,8.2446289c-1.4335938,2.4892578-3.6259766,4.6108398-6.5800781,6.3647461
		c-2.9541016,1.7548828-6.1679688,2.6318359-9.640625,2.6318359h-33.730957c-1.0742188,0-1.8447266-0.2148438-2.3095703-0.6445313
		c-0.4658203-0.4296875-0.6982422-0.9667969-0.6982422-1.6113281c0-0.6796875,0.2324219-1.2260742,0.6982422-1.6381836
		c0.4648438-0.4111328,1.2353516-0.6176758,2.3095703-0.6176758H122.4213867z M126.9331055,89.5913086h15.9526367
		c3.4003906,0,6.515625-0.6259766,9.3457031-1.8798828c2.1835938-1.0019531,3.8847656-2.4521484,5.1015625-4.3505859
		c1.2167969-1.8974609,1.8261719-3.8310547,1.8261719-5.8007813c0-2.828125-1.3242188-5.4331055-3.9746094-7.8149414
		c-2.6503906-2.3808594-6.1054688-3.5717773-10.3652344-3.5717773h-17.8862305V89.5913086z M126.9331055,119.9916992h22.8276367
		c2.9003906,0,5.4238281-0.6445313,7.5722656-1.9335938s3.7773438-2.8818359,4.8886719-4.7802734
		c1.109375-1.8974609,1.6640625-3.8671875,1.6640625-5.9082031c0-2.2910156-0.796875-4.5117188-2.3896484-6.6601563
		c-1.59375-2.1484375-3.8056641-3.7773438-6.6337891-4.8876953c-2.828125-1.109375-6.7324219-1.6650391-11.7089844-1.6650391
		h-16.2202148V119.9916992z"/>
</g>
<g>
	<path fill="#FFFFFF" d="M163.7783203,225.2568359h-5.8007813l-33.246582-56.2353516v51.7236328h8.3251953
		c1.109375,0,1.8974609,0.2060547,2.3632813,0.6171875c0.4648438,0.4121094,0.6982422,0.9589844,0.6982422,1.6386719
		c0,0.6445313-0.2333984,1.1816406-0.6982422,1.6113281c-0.4658203,0.4296875-1.2539063,0.6445313-2.3632813,0.6445313h-16.5966797
		c-1.1103516,0-1.8984375-0.2148438-2.3632813-0.6445313c-0.4658203-0.4296875-0.6982422-0.9667969-0.6982422-1.6113281
		c0-0.6796875,0.2324219-1.2265625,0.6982422-1.6386719c0.4648438-0.4111328,1.2529297-0.6171875,2.3632813-0.6171875h3.7597656
		v-53.8183594h-6.0693359c-1.0742188,0-1.8447266-0.2060547-2.3095703-0.6181641
		c-0.4658203-0.4101563-0.6982422-0.9570313-0.6982422-1.6376953c0-0.6796875,0.2324219-1.2255859,0.6982422-1.6376953
		c0.4648438-0.4121094,1.2353516-0.6181641,2.3095703-0.6181641h11.8164063l33.300293,56.3427734v-51.8310547h-8.3242188
		c-1.0742188,0-1.8457031-0.2060547-2.3105469-0.6181641c-0.4648438-0.4101563-0.6972656-0.9570313-0.6972656-1.6376953
		c0-0.6796875,0.2226563-1.2255859,0.6708984-1.6376953c0.4472656-0.4121094,1.2255859-0.6181641,2.3369141-0.6181641h16.6503906
		c1.0742188,0,1.84375,0.2060547,2.3085938,0.6181641s0.6992188,0.9580078,0.6992188,1.6376953
		c0,0.6806641-0.234375,1.2275391-0.6992188,1.6376953c-0.4648438,0.4121094-1.234375,0.6181641-2.3085938,0.6181641h-3.8144531
		V225.2568359z"/>
</g>
</svg>
